<?xml version="1.0" encoding="UTF-8" standalone="no"?>
<svg
   width="1088.3977"
   zoomAndPan="magnify"
   viewBox="0 0 816.29828 170.55896"
   height="227.41194"
   preserveAspectRatio="xMidYMid"
   version="1.2"
   id="svg33"
   xmlns="http://www.w3.org/2000/svg"
   xmlns:svg="http://www.w3.org/2000/svg">
  <defs
     id="defs4" />
  <rect
     style="fill:#0d1f2e;fill-opacity:1;stroke:none;stroke-width:32.4302;stroke-linejoin:bevel;stroke-miterlimit:5.3;stroke-dasharray:none;stroke-opacity:1;paint-order:stroke fill markers"
     id="rect35-1"
     width="816.29828"
     height="170.55896"
     x="1.3903687e-14"
     y="-170.55896"
     ry="85.27948"
     transform="scale(1,-1)" />
  <rect
     style="fill:#fcc800;fill-opacity:1;stroke:none;stroke-width:28.7163;stroke-linejoin:bevel;stroke-miterlimit:5.3;stroke-dasharray:none;stroke-opacity:1;paint-order:stroke fill markers"
     id="rect35"
     width="787.96716"
     height="138.53941"
     x="13.527679"
     y="-153.52383"
     ry="69.269707"
     transform="scale(1,-1)" />
  <path
     style="fill:#0d1f2e;fill-opacity:1;stroke:none;stroke-width:0.951169"
     d="m 225.81752,119.49713 -4.36359,-0.30614 -1.96967,-0.69975 -2.28785,-0.29157 -7.46961,-3.29467 -1.75756,-1.10794 -3.01511,-2.88649 -2.59088,-3.10516 -1.66665,-3.99443 -0.42424,-1.79312 -0.19696,-2.201305 0.72726,-2.09926 2.07573,-0.90385 2.07574,0.10205 2.07573,-0.18952 7.89385,0.18952 2.07573,0.8018 1.54544,1.99722 1.56059,1.399495 1.87877,1.09337 1.54543,0.69975 2.39391,0.59771 3.10602,0.2041 2.90906,-0.10206 3.84844,-1.09336 1.66665,-0.90385 1.6515,-1.3995 0.6212,-2.594925 -0.51515,-2.59492 -1.45452,-1.19541 -3.74238,-1.50156 -2.07574,-0.10204 -1.86361,-0.29157 -8.51505,-0.59771 -3.74239,-0.8018 -5.90902,-1.89516 -3.63632,-2.09926 -2.90906,-2.59493 -2.59087,-3.30925 -1.34848,-3.48419 -0.72726,-2.79902 -0.10605,-6.6914 1.45452,-5.80213 1.0303,-1.58902 0.72726,-1.80769 1.36362,-1.29747 1.13635,-1.69107 1.86362,-1.20999 1.45452,-1.29746 2.07573,-1.19542 1.66665,-0.5977 1.6515,-0.99132 1.87877,-0.69975 8.19687,-1.6036 5.81811,-0.10205 2.28786,0.49565 1.86361,0.2041 2.18179,0.39362 5.71206,1.90974 6.63629,4.38804 1.34847,1.50155 1.04544,1.60361 1.34847,1.58902 1.65149,3.60082 0.83333,3.89238 -0.92423,1.89517 -1.98483,1.19541 -1.96967,-0.18952 -1.86362,0.18952 -6.8484,-0.18952 -3.22724,-1.00589 -3.42421,-3.49877 -1.56058,-1.19541 -2.2727,-0.80181 -6.65144,0.2041 -1.86361,0.40819 -1.45453,0.59771 -1.77271,1.29745 -1.13635,1.39951 -0.31818,2.59492 0.10606,2.69698 1.66665,1.58902 1.56058,0.8018 4.34844,1.50155 10.49987,1.29747 8.49991,1.99721 5.51509,2.40541 1.75755,1.3995 2.48482,3.09058 2.09089,3.68829 0.51514,1.90975 0.30303,1.99721 -0.10605,6.181155 -0.30303,1.80769 -0.62121,1.99722 -0.83332,1.79312 -2.07574,3.19263 -2.90905,3.20721 -3.31815,2.18673 -5.39388,2.79901 -10.1817,1.90975 -3.31814,0.0874 z m 0,0"
     id="path8" />
  <path
     style="fill:#0d1f2e;fill-opacity:1;stroke:none;stroke-width:0.951169"
     d="m 295.88759,119.89075 -2.18179,-0.18952 -3.74238,-0.8018 -2.28785,-0.2041 -2.99997,-1.0059 -8.10596,-3.99443 -3.4242,-2.59492 -1.13636,-1.29745 -1.56058,-1.39951 -1.34848,-1.58903 -1.24241,-1.20999 -4.78782,-9.082225 -0.92423,-3.8049 -0.21211,-1.89517 -0.51515,-1.79313 -0.31818,-2.09926 0.31818,-8.0909 1.75756,-7.69729 1.56058,-3.79034 3.21208,-5.29189 5.09085,-5.70008 3.53027,-2.49287 1.87877,-0.90385 1.54543,-1.09336 7.78779,-2.79902 11.01502,-1.50156 2.803,0.10205 6.01508,1.00589 7.99991,2.39083 1.54543,1.10794 3.12118,1.29747 2.37876,1.58902 3.01511,2.50745 2.90906,3.09058 2.28786,3.00311 1.96967,3.68829 2.59088,7.4932 0.72726,4.09647 0.31818,5.00033 -0.42423,2.88649 -0.0909,2.09926 -0.5303,1.99721 -0.10606,1.79313 -0.81817,3.8049 -1.56059,3.790335 -4.57571,6.6914 -1.45453,1.39951 -1.34846,1.8077 -2.90906,2.39082 -1.96967,0.90385 -1.5606,1.19541 -3.4242,1.79312 -7.78779,2.50745 -6.22719,0.78722 z m 5.80297,-17.68337 2.07573,-0.39361 1.56059,-0.69976 1.87877,-0.49565 4.96964,-3.294675 1.45452,-1.6036 0.6212,-1.50156 1.15151,-1.79312 0.72726,-1.79312 0.83333,-3.70287 0.19696,-6.09369 -0.30302,-1.79311 -0.93939,-1.89517 -1.24241,-3.80492 -4.0454,-4.09647 -3.22724,-2.18673 -1.86361,-0.80181 -1.86362,-0.40819 -4.98479,-0.5977 -2.90905,0.2041 -4.04542,0.99131 -1.36362,0.51024 -5.18175,3.39672 -2.49997,3.19263 -0.62121,1.79312 -0.81817,1.8077 -0.31818,1.89517 -0.51514,1.79311 v 6.09369 l 0.83332,3.70287 0.92423,1.79312 0.51515,1.6036 1.45453,1.89517 1.34846,1.39951 2.80301,2.18673 1.66664,0.903845 3.74238,1.50155 2.28786,0.29157 z m 0,0"
     id="path10" />
  <path
     style="fill:#0d1f2e;fill-opacity:1;stroke:none;stroke-width:0.951169"
     d="m 343.208,115.79427 -0.21212,-2.09927 0.42424,-1.89516 -0.21212,-1.99721 0.10606,-12.187385 -0.21212,-1.79312 -0.10606,-3.99443 0.31818,-1.99721 -0.31818,-3.99443 0.31818,-1.89517 -0.31818,-4.30057 0.31818,-1.89517 -0.21212,-1.99721 0.31818,-1.8077 -0.31818,-2.09926 0.21212,-1.99722 -0.10606,-1.89516 0.30303,-2.20131 -0.19697,-1.89517 -0.31818,-1.99722 0.31818,-2.09926 0.19697,-1.89516 -0.62121,-5.18985 1.34847,-2.69696 3.01512,-1.10794 10.8029,-0.18953 2.69694,1.19542 1.03029,3.00311 0.21212,4.8837 -0.21212,2.20131 0.31818,15.58411 -0.31818,2.09926 0.31818,2.2013 -0.31818,2.78445 0.10606,5.00032 -0.19696,2.09926 0.19696,1.99722 -0.10606,2.2013 0.31818,1.89517 -0.10606,3.68829 0.6212,2.201305 2.1818,0.90384 18.27251,0.2041 2.28786,-0.30614 1.65149,0.99132 1.36362,2.20131 -0.31817,1.89516 0.31817,2.20132 -0.21212,1.80769 -0.10605,1.99721 0.21212,2.18674 -1.15151,1.80769 -2.90905,0.99132 -36.74201,0.2041 -3.31813,-1.19542 z m 0,0"
     id="path12" />
  <path
     style="fill:#0d1f2e;fill-opacity:1;stroke:none;stroke-width:0.951169"
     d="m 391.36826,115.79427 v -7.68272 l 0.21212,-1.90975 1.24241,-1.89516 6.8484,-2.09926 1.04545,-2.18674 0.19696,-3.906955 -0.40908,-4.28599 0.51515,-1.99721 -0.4091,-3.89239 0.19698,-1.99721 0.10605,-4.09648 -0.30303,-2.30335 -0.10605,-1.70565 0.30303,-8.48452 -1.34848,-1.79312 -6.33326,-2.09926 -1.03029,-1.89517 v -1.90974 l -0.21212,-1.99722 v -2.18673 l 0.21212,-1.70565 v -1.89516 l 1.13636,-2.09927 2.28784,-0.99131 4.04542,0.18951 1.96967,-0.10204 6.33326,0.10204 2.28785,-0.18951 13.18166,0.0874 3.3333,0.90385 0.81817,1.99721 0.21212,1.99722 -0.21212,1.80769 v 5.8896 l -1.13635,1.89517 -1.96967,1.09336 -2.28786,0.10205 -1.96967,1.10794 -1.13635,1.79312 v 4.19852 l 0.19697,2.09927 -0.19697,1.99722 0.19697,1.89516 -0.19697,3.09058 0.19697,3.00311 -0.40908,4.19853 0.40908,3.99443 -0.19697,8.192945 1.13635,1.99721 6.95447,2.08469 1.45453,1.70564 -0.31819,6.09369 0.21212,1.79313 v 2.2013 l -1.13634,1.79313 -1.96968,1.00589 -30.84812,-0.2041 -2.07574,-0.69975 z m 0,0"
     id="path14" />
  <path
     style="fill:#0d1f2e;fill-opacity:1;stroke:none;stroke-width:0.951169"
     d="m 436.41564,115.60475 0.21212,-3.80491 -0.31819,-7.98886 0.21212,-1.99721 -0.21212,-7.988855 0.31819,-3.89239 -0.31819,-2.09926 0.31819,-1.89517 -0.31819,-4.30056 0.31819,-3.79034 -0.42424,-8.00344 0.31817,-1.99721 -0.31817,-1.99722 0.31817,-2.18673 -0.21212,-3.80491 0.10607,-1.99721 -0.21212,-1.99721 v -4.09649 l 1.56058,-1.89516 1.86362,-1.09336 2.18179,0.0874 1.87877,-0.0874 2.07573,0.18951 6.63629,-0.18951 2.07573,0.18951 14.74225,0.10205 4.25753,0.8018 5.71205,1.79312 2.07574,1.00589 3.83329,2.28879 2.90905,2.69696 1.77271,1.31204 2.69694,3.09058 0.83332,1.69107 2.37877,3.39673 1.56058,3.99443 0.51516,1.8077 0.21211,2.09926 1.56059,5.6855 -0.40908,6.39983 0.0909,1.69107 -0.51515,2.09926 -0.30303,2.09926 -0.72726,1.79313 -0.42425,1.99721 -1.03029,1.90975 -0.53029,1.895165 -3.21209,4.98574 -4.15146,4.60672 -8.83324,5.6855 -6.01507,1.79311 -6.63629,0.90385 -18.69675,0.10205 -2.1818,0.30614 h -2.07574 l -2.18179,-0.30614 h -2.37875 l -1.66669,-0.90385 z m 22.01489,-12.98919 8.60596,-0.40818 3.74239,-0.99132 2.07572,-1.00589 1.66665,-0.991315 1.24241,-1.60361 1.34847,-1.3995 1.34847,-1.79313 1.56059,-3.60081 0.6212,-1.89517 0.51515,-4.89828 -0.30303,-3.09058 -1.25756,-5.88959 -1.34847,-1.60361 -1.13635,-1.89516 -2.59088,-2.79902 -3.53026,-2.20131 -4.15146,-1.19542 -3.12118,-0.20409 -2.18179,0.10205 -2.18179,-0.10205 -3.01513,1.10794 -1.24241,1.79313 v 25.67222 l -0.30302,1.99722 0.40909,1.79311 -0.21212,1.99722 0.93938,2.201305 z m 0,0"
     id="path16" />
  <path
     style="fill:#0d1f2e;fill-opacity:1;stroke:none;stroke-width:0.951169"
     d="m 506.78428,115.89632 0.21211,-1.99722 -0.21211,-2.28878 0.31817,-20.686475 -0.42424,-3.09058 0.21212,-2.2013 v -1.99722 l 0.21212,-1.89517 -0.31817,-1.8077 0.10605,-14.18459 0.21212,-1.89517 -0.42424,-11.98328 1.1515,-1.89517 1.96968,-1.0059 h 24.81789 l 1.96967,-0.18951 1.96968,0.18951 2.18179,-0.10204 2.18179,0.10204 3.72723,-0.29157 2.49998,0.29157 1.86361,0.90385 1.04545,1.89516 0.19696,2.09927 -0.19696,2.09926 0.19696,1.89517 -0.19696,1.99721 v 1.89517 l -0.72727,1.99721 -1.96967,0.90385 -2.09089,0.30615 -4.24237,-0.2041 -2.07574,0.2041 -5.09085,-0.30615 -3.01511,0.2041 -3.01512,-0.10205 -2.99997,0.99132 -1.04544,1.99721 0.10606,1.70566 -0.31817,2.09926 v 5.88959 l 1.1515,1.79312 2.37875,0.8018 h 15.7877 l 3.10603,1.0059 1.04544,2.09926 0.31818,1.89517 -0.21212,5.99164 0.10605,2.20131 -1.1515,1.99722 -1.96967,0.88926 -16.19678,0.10206 -3.10603,1.00589 -0.93938,2.09926 -0.21212,2.099255 0.10606,1.89517 -0.10606,1.89517 0.31818,4.30057 -0.21212,2.09926 0.10606,3.09058 -1.34847,3.09058 -2.07573,1.0059 -11.42411,0.10205 -3.21209,-1.10795 z m 0,0"
     id="path18" />
  <path
     style="fill:#0d1f2e;fill-opacity:1;stroke:none;stroke-width:0.951169"
     d="m 555.88327,115.79427 v -7.68272 l 0.21212,-1.90975 1.24241,-1.89516 6.84841,-2.09926 1.04544,-2.18674 0.19697,-3.906955 -0.40908,-4.28599 0.51514,-1.99721 -0.40909,-3.89239 0.19697,-1.99721 0.10606,-4.09648 -0.30303,-2.30335 -0.10605,-1.70565 0.30302,-8.48452 -1.34847,-1.79312 -6.33326,-2.09926 -1.03029,-1.89517 v -1.90974 l -0.21212,-1.99722 v -2.18673 l 0.21212,-1.70565 v -1.89516 l 1.13635,-2.09927 2.28785,-0.99131 4.04541,0.18951 1.96968,-0.10204 6.33326,0.10204 2.28784,-0.18951 13.18167,0.0874 3.33329,0.90385 0.81818,1.99721 0.21212,1.99722 -0.21212,1.80769 v 5.8896 l -1.13635,1.89517 -1.96967,1.09336 -2.28786,0.10205 -1.96967,1.10794 -1.13635,1.79312 v 4.19852 l 0.19696,2.09927 -0.19696,1.99722 0.19696,1.89516 -0.19696,3.09058 0.19696,3.00311 -0.40908,4.19853 0.40908,3.99443 -0.19696,8.192945 1.13635,1.99721 6.95447,2.08469 1.45452,1.70564 -0.31818,6.09369 0.21212,1.79313 v 2.2013 l -1.13635,1.79313 -1.96967,1.00589 -30.84813,-0.2041 -2.07574,-0.69975 z m 0,0"
     id="path20" />
  <path
     style="fill:#0d1f2e;fill-opacity:1;stroke:none;stroke-width:0.951169"
     d="m 600.61245,115.79427 0.42424,-1.99721 0.10606,-1.99722 -0.21212,-3.89238 v -1.99722 l -0.21211,-2.30336 0.31817,-1.79311 -0.10606,-1.895165 0.21212,-2.20131 -0.31818,-2.09927 0.21212,-3.99442 -0.31817,-3.89238 0.31817,-2.09926 v -17.88747 l -0.21212,-1.79311 0.21212,-2.09927 -0.42424,-5.0878 0.42424,-2.90105 -0.21212,-3.99443 1.04545,-2.20132 2.99996,-0.69975 13.60591,-0.29157 1.86361,0.18953 4.04541,-0.0874 2.07573,0.18952 4.5757,-0.18952 2.07574,0.29157 1.86361,-0.2041 8.31809,0.10205 2.16664,0.90384 1.04544,1.99722 -0.31818,1.89517 -0.0909,2.20131 0.30303,1.89516 0.21212,4.09648 -1.15151,1.79312 -2.16663,1.10794 -19.93917,0.10205 -3.21208,0.88927 -1.04545,2.90107 0.21212,3.09058 1.24241,1.8077 1.75756,1.09336 8.21202,-0.10205 2.37877,0.2041 h 2.18179 l 2.07573,-0.2041 4.15147,0.10205 1.77271,1.09337 0.92423,1.90974 0.21211,1.99722 -0.21211,7.8868 -1.0303,1.89517 -2.07572,1.10794 -1.86362,0.0874 -2.1818,-0.18952 -2.80299,0.18952 -5.49994,-0.29157 -2.09089,0.2041 h -4.0454 l -1.86362,1.09337 -0.93938,2.09926 -0.10606,4.89828 0.93939,3.090575 2.18179,1.19541 2.28785,-0.18952 2.2727,0.18952 1.98483,-0.29156 13.69681,0.18951 3.12118,1.0059 1.34846,1.99721 -0.21212,1.89517 0.10607,6.19574 -0.21212,1.89517 -0.92424,1.89516 -2.18179,1.0059 -1.98482,0.20409 -6.33326,-0.40819 -6.33326,0.30615 -1.86362,-0.30615 -23.45428,0.2041 -1.98482,-1.10795 z m 0,0"
     id="path22" />
  <path
     style="fill:#0d1f2e;fill-opacity:1;stroke:none;stroke-width:0.951169"
     d="m 655.52676,115.79427 -0.21212,-2.09927 0.42424,-1.89516 -0.21212,-1.99721 0.10606,-12.187385 -0.21212,-1.79312 -0.10606,-3.99443 0.31818,-1.99721 -0.31818,-3.99443 0.31818,-1.89517 -0.31818,-4.30057 0.31818,-1.89517 -0.21212,-1.99721 0.31818,-1.8077 -0.31818,-2.09926 0.21212,-1.99722 -0.10606,-1.89516 0.30303,-2.20131 -0.19697,-1.89517 -0.31818,-1.99722 0.31818,-2.09926 0.19697,-1.89516 -0.62121,-5.18985 1.34847,-2.69696 3.01511,-1.10794 10.80291,-0.18953 2.69694,1.19542 1.03029,3.00311 0.21212,4.8837 -0.21212,2.20131 0.31818,15.58411 -0.31818,2.09926 0.31818,2.2013 -0.31818,2.78445 0.10606,5.00032 -0.19696,2.09926 0.19696,1.99722 -0.10606,2.2013 0.31818,1.89517 -0.10606,3.68829 0.6212,2.201305 2.1818,0.90384 18.27251,0.2041 2.28786,-0.30614 1.65149,0.99132 1.36362,2.20131 -0.31817,1.89516 0.31817,2.20132 -0.21212,1.80769 -0.10605,1.99721 0.21211,2.18674 -1.1515,1.80769 -2.90905,0.99132 -36.74201,0.2041 -3.31814,-1.19542 z m 0,0"
     id="path24" />
  <path
     style="fill:#0d1f2e;fill-opacity:1;stroke:none;stroke-width:0.951169"
     d="m 706.49001,115.60475 0.21212,-3.80491 -0.31817,-7.98886 0.21211,-1.99721 -0.21211,-7.988855 0.31817,-3.89239 -0.31817,-2.09926 0.31817,-1.89517 -0.31817,-4.30056 0.31817,-3.79034 -0.42424,-8.00344 0.31818,-1.99721 -0.31818,-1.99722 0.31818,-2.18673 -0.21211,-3.80491 0.10605,-1.99721 -0.21212,-1.99721 v -4.09649 l 1.56059,-1.89516 1.86361,-1.09336 2.1818,0.0874 1.87876,-0.0874 2.07574,0.18951 6.63629,-0.18951 2.07573,0.18951 14.74225,0.10205 4.25753,0.8018 5.71206,1.79312 2.07572,1.00589 3.8333,2.28879 2.90906,2.69696 1.7727,1.31204 2.69694,3.09058 0.83332,1.69107 2.37876,3.39673 1.56059,3.99443 0.51515,1.8077 0.21212,2.09926 1.56058,5.6855 -0.40908,6.39983 0.0909,1.69107 -0.51515,2.09926 -0.30302,2.09926 -0.72727,1.79313 -0.42424,1.99721 -1.03029,1.90975 -0.5303,1.895165 -3.21208,4.98574 -4.15147,4.60672 -8.83323,5.6855 -6.01508,1.79311 -6.63629,0.90385 -18.69675,0.10205 -2.18179,0.30614 h -2.07573 l -2.1818,-0.30614 h -2.37876 l -1.66669,-0.90385 z m 22.0149,-12.98919 8.60596,-0.40818 3.74238,-0.99132 2.07574,-1.00589 1.66664,-0.991315 1.24241,-1.60361 1.34847,-1.3995 1.34847,-1.79313 1.56058,-3.60081 0.62121,-1.89517 0.51515,-4.89828 -0.30303,-3.09058 -1.25756,-5.88959 -1.34847,-1.60361 -1.13635,-1.89516 -2.59088,-2.79902 -3.53026,-2.20131 -4.15147,-1.19542 -3.12118,-0.20409 -2.18179,0.10205 -2.18179,-0.10205 -3.01511,1.10794 -1.24241,1.79313 v 25.67222 l -0.30303,1.99722 0.40908,1.79311 -0.21212,1.99722 0.93938,2.201305 z m 0,0"
     id="path26" />
  <path
     style="fill:none;stroke:#0d1f2e;stroke-width:10.6845;stroke-linecap:butt;stroke-linejoin:miter;stroke-miterlimit:4;stroke-opacity:1"
     d="m 86.391309,81.922255 86.188381,-0.41548"
     id="path28" />
  <path
     style="fill:none;stroke:#0d1f2e;stroke-width:10.6845;stroke-linecap:round;stroke-linejoin:round;stroke-miterlimit:4;stroke-opacity:1"
     d="m 50.990208,82.093545 c -0.04545,-8.68496 7.234764,-15.7554 16.257385,-15.79913 9.022622,-0.0437 16.374806,6.95745 16.420266,15.63877 0.0455,8.68497 -7.234768,15.75904 -16.257389,15.79913 -9.022622,0.0437 -16.374808,-6.95745 -16.420262,-15.63877"
     id="path29" />
  <path
     style="fill:none;stroke:#0d1f2e;stroke-width:10.6477;stroke-linecap:butt;stroke-linejoin:miter;stroke-miterlimit:4;stroke-opacity:1"
     d="m 113.55388,115.22252 h 58.74555"
     id="path30" />
  <path
     style="fill:#0d1f2e;fill-opacity:1;fill-rule:nonzero;stroke:#0d1f2e;stroke-width:10.6477;stroke-linecap:round;stroke-linejoin:round;stroke-miterlimit:4;stroke-opacity:1"
     d="m 110.83801,99.554595 -21.708091,15.667925 21.708091,15.66794 z m 0,0"
     id="path31" />
  <path
     style="fill:none;stroke:#0d1f2e;stroke-width:10.6477;stroke-linecap:butt;stroke-linejoin:miter;stroke-miterlimit:4;stroke-opacity:1"
     d="m 118.98185,48.366865 h 53.31758"
     id="path32" />
  <path
     style="fill:none;stroke:#0d1f2e;stroke-width:10.6477;stroke-linecap:round;stroke-linejoin:round;stroke-miterlimit:4;stroke-opacity:1"
     d="m 89.129919,48.366865 16.280121,-15.66794 16.2839,15.66794 -16.2839,15.66429 z m 0,0"
     id="path33" />
</svg>
